<svg xmlns="http://www.w3.org/2000/svg" width="60" height="60" viewBox="0 0 60 60" fill="none">
  <path d="M39.45 5H20.55C11.1 5 8.75 7.525 8.75 17.6V45.75C8.75 52.4 12.4 53.975 16.825 49.225L16.85 49.2C18.9 47.025 22.025 47.2 23.8 49.575L26.325 52.95C28.35 55.625 31.625 55.625 33.65 52.95L36.175 49.575C37.975 47.175 41.1 47 43.15 49.2C47.6 53.95 51.225 52.375 51.225 45.725V17.6C51.25 7.525 48.9 5 39.45 5ZM22.5 17.5C23.875 17.5 25 18.625 25 20C25 21.375 23.9 22.5 22.5 22.5C21.1 22.5 20 21.375 20 20C20 18.625 21.1 17.5 22.5 17.5ZM37.5 35C36.1 35 35 33.875 35 32.5C35 31.125 36.125 30 37.5 30C38.875 30 40 31.125 40 32.5C40 33.875 38.9 35 37.5 35ZM39.75 18.975L22.925 35.8C22.55 36.175 22.075 36.35 21.6 36.35C21.125 36.35 20.65 36.175 20.275 35.8C19.55 35.075 19.55 33.875 20.275 33.15L37.1 16.325C37.825 15.6 39.025 15.6 39.75 16.325C40.475 17.05 40.475 18.25 39.75 18.975Z" fill="#EF4444"/>
</svg>