<svg xmlns="http://www.w3.org/2000/svg" width="36" height="36" viewBox="0 0 36 36" fill="none">
  <path fill-rule="evenodd" clip-rule="evenodd" d="M9.8081 20.0171C8.02604 18.6459 5.94415 17.717 3.7334 17.3066C6.01669 22.8171 5.50519 28.9182 5.28371 30.7058L5.29953 30.7216H6.95531C6.96586 30.7216 6.97113 30.7163 6.97113 30.7111C6.9948 28.8548 7.16584 27.0034 7.48263 25.1742C7.96776 22.5693 8.74292 20.8397 9.8081 20.0171Z" fill="#F8FAFC"/>
  <path fill-rule="evenodd" clip-rule="evenodd" d="M3.57502 8.51605C2.32 11.2159 2.25673 13.9 3.37991 16.5049C6.07308 16.8927 8.60439 18.025 10.6885 19.7743C13.3251 21.9521 15.3289 23.8768 17.2167 28.8283C17.3759 29.246 17.6472 29.6117 18.0007 29.8852C18.3542 30.1587 18.7763 30.3294 19.2205 30.3787C22.0839 30.7161 29.1816 31.2751 33.2156 29.2871C33.2594 29.2659 33.2985 29.236 33.3304 29.1993C33.3623 29.1625 33.3864 29.1196 33.4012 29.0733C33.416 29.0269 33.4212 28.978 33.4165 28.9295C33.4118 28.8811 33.3972 28.8341 33.3738 28.7914L33.1787 28.4434C32.4562 27.0935 31.1116 24.5834 28.243 24.0139C27.3257 23.8346 26.3763 23.9206 25.5062 24.2618C24.7152 24.5676 23.977 24.7153 23.302 24.7153C21.7728 24.7153 20.5705 23.9559 19.8533 22.49C18.0659 19.7413 16.1984 17.0456 14.2532 14.4062C10.4249 9.23848 7.49827 6.09566 5.75284 5.27832C5.35735 5.70017 4.3449 6.86027 3.57502 8.51605ZM24.7627 7.55633L25.5009 8.90099C25.5092 8.91813 25.5219 8.93271 25.5378 8.94318L26.8877 9.68143L25.5431 10.4197C25.5258 10.4277 25.5112 10.4405 25.5009 10.4566L24.7627 11.8065L24.0244 10.4619C24.0164 10.4446 24.0036 10.4299 23.9875 10.4197L22.6376 9.68143L23.9822 8.94318C23.9994 8.93491 24.0139 8.92215 24.0244 8.90627L24.7627 7.55633ZM17.8653 10.0716C17.8832 10.0619 17.8978 10.0473 17.9075 10.0295L18.6458 8.67952L19.384 10.0242C19.3921 10.0415 19.4049 10.0561 19.4209 10.0664L20.7709 10.8046L19.4262 11.5429C19.4089 11.5509 19.3943 11.5637 19.384 11.5798L18.6458 12.9297L17.9075 11.585C17.8993 11.5679 17.8865 11.5533 17.8706 11.5429L16.5207 10.8046L17.8653 10.0716ZM22.4477 14.7384L23.186 13.3885L23.9242 14.7384C23.9331 14.7538 23.9458 14.7665 23.9611 14.7753L25.3111 15.5136L23.9664 16.2518C23.9491 16.2598 23.9345 16.2727 23.9242 16.2887L23.186 17.6387L22.4477 16.294C22.4395 16.2769 22.4267 16.2623 22.4108 16.2518L21.0609 15.5136L22.4055 14.7753C22.4227 14.767 22.4373 14.7543 22.4477 14.7384Z" fill="#F8FAFC"/>
</svg>