<svg xmlns="http://www.w3.org/2000/svg" width="16" height="16" viewBox="0 0 16 16" fill="none">
  <path d="M15.2537 12.6013C15.2537 12.8636 15.1954 13.1332 15.0716 13.3956C14.9477 13.6579 14.7874 13.9056 14.5761 14.1388C14.219 14.5323 13.8255 14.8165 13.381 14.9987C12.9438 15.1809 12.4701 15.2756 11.96 15.2756C11.2168 15.2756 10.4225 15.1007 9.58448 14.7437C8.74648 14.3866 7.90847 13.9056 7.07776 13.3008C6.23976 12.6887 5.44548 12.011 4.68763 11.2605C3.93707 10.5026 3.25939 9.70835 2.65457 8.87764C2.05704 8.04693 1.5761 7.21621 1.22632 6.39278C0.876547 5.56207 0.70166 4.76779 0.70166 4.00994C0.70166 3.51443 0.789104 3.04078 0.963991 2.60356C1.13888 2.15905 1.41578 1.75098 1.80199 1.38664C2.26836 0.927556 2.77845 0.70166 3.31768 0.70166C3.52172 0.70166 3.72575 0.745382 3.90793 0.832826C4.09739 0.920269 4.26499 1.05143 4.39615 1.2409L6.08673 3.62373C6.2179 3.80591 6.31263 3.97351 6.37821 4.13382C6.44379 4.28685 6.48023 4.43988 6.48023 4.57833C6.48023 4.75322 6.42922 4.9281 6.3272 5.0957C6.23247 5.2633 6.09402 5.43819 5.91913 5.61308L5.36532 6.18875C5.28516 6.2689 5.24873 6.36364 5.24873 6.48023C5.24873 6.53852 5.25602 6.58953 5.27059 6.64783C5.29245 6.70612 5.31431 6.74984 5.32889 6.79357C5.46005 7.03404 5.68595 7.34738 6.00657 7.7263C6.33449 8.10522 6.68426 8.49143 7.06318 8.87764C7.45668 9.26385 7.8356 9.62091 8.22181 9.94882C8.60074 10.2695 8.91407 10.4881 9.16183 10.6192C9.19827 10.6338 9.24199 10.6557 9.293 10.6775C9.35129 10.6994 9.40959 10.7067 9.47517 10.7067C9.59905 10.7067 9.69378 10.6629 9.77394 10.5828L10.3277 10.0363C10.5099 9.85409 10.6848 9.71564 10.8524 9.6282C11.02 9.52618 11.1876 9.47517 11.3698 9.47517C11.5082 9.47517 11.654 9.50432 11.8143 9.5699C11.9746 9.63548 12.1422 9.73022 12.3244 9.85409L14.7364 11.5665C14.9258 11.6977 15.057 11.8507 15.1371 12.0329C15.21 12.2151 15.2537 12.3972 15.2537 12.6013Z" fill="#334155" stroke="#334155" stroke-miterlimit="10"/>
  <path d="M12.7257 5.80288C12.7257 5.36566 12.3832 4.69526 11.8732 4.14874C11.4068 3.64594 10.7874 3.25244 10.1753 3.25244" stroke="#334155" stroke-width="1.2" stroke-linecap="round" stroke-linejoin="round"/>
  <path d="M15.2762 5.80254C15.2762 2.98248 12.9954 0.70166 10.1753 0.70166" stroke="#334155" stroke-width="1.2" stroke-linecap="round" stroke-linejoin="round"/>
</svg>