<svg width="24" height="24" viewBox="0 0 24 24" fill="none" xmlns="http://www.w3.org/2000/svg">
<g clip-path="url(#clip0_230_1826)">
<path d="M11.9998 23.6998C18.4615 23.6998 23.6998 18.4615 23.6998 11.9998C23.6998 5.53807 18.4615 0.299805 11.9998 0.299805C5.53807 0.299805 0.299805 5.53807 0.299805 11.9998C0.299805 18.4615 5.53807 23.6998 11.9998 23.6998Z" fill="white"/>
<path d="M6.95057 9.21088H9.49942C9.57156 8.34523 9.81202 7.57577 10.1727 6.97462C10.6296 6.18111 11.2788 5.7002 12.0242 5.7002C12.7696 5.7002 13.4189 6.18111 13.8758 6.97462C14.2124 7.57577 14.4529 8.34523 14.549 9.21088H17.0498C17.3624 9.21088 17.6269 9.45134 17.6029 9.76393L17.0979 16.9055C17.0258 17.7952 16.4727 18.3002 15.6551 18.3002H8.34523C7.43149 18.3002 6.95057 17.675 6.90248 16.9055L6.39752 9.76393C6.37347 9.45134 6.63797 9.21088 6.95057 9.21088ZM10.1246 9.21088H13.8517C13.7796 8.46546 13.5632 7.79218 13.2746 7.28722C12.938 6.68607 12.4811 6.32539 11.9761 6.32539C11.4952 6.32539 11.0384 6.68607 10.6777 7.28722C10.4132 7.79218 10.2208 8.46546 10.1246 9.21088Z" fill="#EF4444"/>
<path d="M10.1484 15.799C10.0281 15.7268 10.0041 15.5585 10.0762 15.4383C10.1484 15.3181 10.3167 15.294 10.4369 15.3662C10.509 15.4142 10.5812 15.4623 10.6774 15.5104C11.2785 15.8711 11.8316 16.0635 12.2884 16.0635C12.6972 16.0635 13.0339 15.9192 13.2503 15.5826C13.2743 15.5585 13.2743 15.5345 13.2743 15.5345C13.3464 15.4383 13.3705 15.3421 13.4186 15.2219C13.4907 15.0055 13.4667 14.7891 13.3945 14.5967C13.2984 14.3803 13.13 14.1879 12.8415 14.0196C12.6491 13.8994 12.4327 13.8032 12.1682 13.731C11.4709 13.5387 10.9659 13.2501 10.6774 12.8894C10.3648 12.4807 10.3407 11.9757 10.6774 11.3746C10.8938 10.9898 11.3266 10.7253 11.9037 10.6772C12.3846 10.6291 12.9617 10.7494 13.5629 11.062C13.6831 11.1341 13.7312 11.2784 13.6831 11.4226C13.635 11.5669 13.4667 11.591 13.3224 11.5429C12.8174 11.2784 12.3365 11.1822 11.9277 11.2062C11.543 11.2303 11.2545 11.3746 11.1342 11.615C10.9178 11.9997 10.9178 12.3123 11.0861 12.5528C11.2785 12.8173 11.7113 13.0337 12.3125 13.202C12.6251 13.2982 12.9136 13.4184 13.13 13.5387C13.4907 13.7551 13.7552 14.0436 13.8755 14.3562C14.0197 14.6688 14.0197 15.0055 13.9476 15.3181C13.8995 15.4623 13.8514 15.6066 13.7552 15.7509C13.7071 15.8471 13.6831 15.8711 13.6831 15.8952C13.3705 16.352 12.8896 16.5925 12.2884 16.5925C11.7354 16.5925 11.0861 16.4001 10.4129 15.9673C10.3167 15.9192 10.2445 15.8711 10.1484 15.799Z" fill="white"/>
</g>
<defs>
<clipPath id="clip0_230_1826">
<rect width="24" height="24" fill="white"/>
</clipPath>
</defs>
</svg>
