<svg width="167" height="36" viewBox="0 0 167 36" fill="none" xmlns="http://www.w3.org/2000/svg">
<path fill-rule="evenodd" clip-rule="evenodd" d="M9.8081 20.0171C8.02604 18.6459 5.94415 17.717 3.7334 17.3066C6.01669 22.8171 5.50519 28.9182 5.28371 30.7058L5.29953 30.7216H6.95531C6.96586 30.7216 6.97113 30.7163 6.97113 30.7111C6.9948 28.8548 7.16584 27.0034 7.48263 25.1742C7.96776 22.5693 8.74292 20.8397 9.8081 20.0171Z" fill="#F8FAFC"/>
<path fill-rule="evenodd" clip-rule="evenodd" d="M3.57502 8.51605C2.32 11.2159 2.25673 13.9 3.37991 16.5049C6.07308 16.8927 8.60439 18.025 10.6885 19.7743C13.3251 21.9521 15.3289 23.8768 17.2167 28.8283C17.3759 29.246 17.6472 29.6117 18.0007 29.8852C18.3542 30.1587 18.7763 30.3294 19.2205 30.3787C22.0839 30.7161 29.1816 31.2751 33.2156 29.2871C33.2594 29.2659 33.2985 29.236 33.3304 29.1993C33.3623 29.1625 33.3864 29.1196 33.4012 29.0733C33.416 29.0269 33.4212 28.978 33.4165 28.9295C33.4118 28.8811 33.3972 28.8341 33.3738 28.7914L33.1787 28.4434C32.4562 27.0935 31.1116 24.5834 28.243 24.0139C27.3257 23.8346 26.3763 23.9206 25.5062 24.2618C24.7152 24.5676 23.977 24.7153 23.302 24.7153C21.7728 24.7153 20.5705 23.9559 19.8533 22.49C18.0659 19.7413 16.1984 17.0456 14.2532 14.4062C10.4249 9.23848 7.49827 6.09566 5.75284 5.27832C5.35735 5.70017 4.3449 6.86027 3.57502 8.51605ZM24.7627 7.55633L25.5009 8.90099C25.5092 8.91813 25.5219 8.93271 25.5378 8.94318L26.8877 9.68143L25.5431 10.4197C25.5258 10.4277 25.5112 10.4405 25.5009 10.4566L24.7627 11.8065L24.0244 10.4619C24.0164 10.4446 24.0036 10.4299 23.9875 10.4197L22.6376 9.68143L23.9822 8.94318C23.9994 8.93491 24.0139 8.92215 24.0244 8.90627L24.7627 7.55633ZM17.8653 10.0716C17.8832 10.0619 17.8978 10.0473 17.9075 10.0295L18.6458 8.67952L19.384 10.0242C19.3921 10.0415 19.4049 10.0561 19.4209 10.0664L20.7709 10.8046L19.4262 11.5429C19.4089 11.5509 19.3943 11.5637 19.384 11.5798L18.6458 12.9297L17.9075 11.585C17.8993 11.5679 17.8865 11.5533 17.8706 11.5429L16.5207 10.8046L17.8653 10.0716ZM22.4477 14.7384L23.186 13.3885L23.9242 14.7384C23.9331 14.7538 23.9458 14.7665 23.9611 14.7753L25.3111 15.5136L23.9664 16.2518C23.9491 16.2598 23.9345 16.2727 23.9242 16.2887L23.186 17.6387L22.4477 16.294C22.4395 16.2769 22.4267 16.2623 22.4108 16.2518L21.0609 15.5136L22.4055 14.7753C22.4227 14.767 22.4373 14.7543 22.4477 14.7384Z" fill="#F8FAFC"/>
<path d="M51.848 27.264C50.488 27.264 49.216 27.096 48.032 26.76C46.848 26.424 45.84 25.96 45.008 25.368L46.112 22.44C46.656 22.808 47.232 23.12 47.84 23.376C48.448 23.632 49.088 23.832 49.76 23.976C50.432 24.104 51.136 24.168 51.872 24.168C53.024 24.168 53.84 23.992 54.32 23.64C54.816 23.288 55.064 22.84 55.064 22.296C55.064 21.8 54.896 21.424 54.56 21.168C54.24 20.896 53.648 20.664 52.784 20.472L49.952 19.896C48.4 19.576 47.24 19.032 46.472 18.264C45.704 17.496 45.32 16.472 45.32 15.192C45.32 14.104 45.608 13.16 46.184 12.36C46.76 11.56 47.568 10.936 48.608 10.488C49.664 10.04 50.896 9.816 52.304 9.816C53.504 9.816 54.624 9.984 55.664 10.32C56.704 10.656 57.56 11.136 58.232 11.76L57.128 14.496C56.472 13.968 55.736 13.576 54.92 13.32C54.12 13.048 53.224 12.912 52.232 12.912C51.192 12.912 50.392 13.096 49.832 13.464C49.288 13.832 49.016 14.336 49.016 14.976C49.016 15.456 49.184 15.848 49.52 16.152C49.856 16.44 50.448 16.672 51.296 16.848L54.08 17.4C55.664 17.72 56.84 18.256 57.608 19.008C58.376 19.76 58.76 20.76 58.76 22.008C58.76 23.064 58.472 23.984 57.896 24.768C57.336 25.552 56.536 26.168 55.496 26.616C54.472 27.048 53.256 27.264 51.848 27.264ZM61.5249 27V10.08H65.2689V16.872H73.0209V10.08H76.7889V27H73.0209V19.968H65.2689V27H61.5249ZM79.724 18.528C79.724 16.768 80.052 15.24 80.708 13.944C81.38 12.632 82.34 11.616 83.588 10.896C84.836 10.176 86.316 9.816 88.028 9.816C89.74 9.816 91.22 10.176 92.468 10.896C93.716 11.616 94.676 12.632 95.348 13.944C96.036 15.24 96.38 16.76 96.38 18.504C96.38 20.28 96.036 21.824 95.348 23.136C94.676 24.432 93.716 25.448 92.468 26.184C91.22 26.904 89.74 27.264 88.028 27.264C86.316 27.264 84.836 26.904 83.588 26.184C82.356 25.448 81.404 24.424 80.732 23.112C80.06 21.8 79.724 20.272 79.724 18.528ZM83.636 18.528C83.636 20.272 83.996 21.64 84.716 22.632C85.452 23.608 86.556 24.096 88.028 24.096C89.468 24.096 90.564 23.608 91.316 22.632C92.068 21.64 92.444 20.272 92.444 18.528C92.444 16.768 92.068 15.408 91.316 14.448C90.58 13.472 89.484 12.984 88.028 12.984C86.556 12.984 85.452 13.472 84.716 14.448C83.996 15.408 83.636 16.768 83.636 18.528ZM99.3061 27V10.08H107.202C109.106 10.08 110.546 10.544 111.522 11.472C112.514 12.384 113.01 13.64 113.01 15.24C113.01 16.824 112.514 18.088 111.522 19.032C110.546 19.96 109.106 20.424 107.202 20.424H103.05V27H99.3061ZM103.05 17.52H106.722C107.618 17.52 108.282 17.32 108.714 16.92C109.162 16.52 109.386 15.96 109.386 15.24C109.386 14.52 109.162 13.968 108.714 13.584C108.282 13.184 107.618 12.984 106.722 12.984H103.05V17.52ZM113.66 27V23.16H117.548V27H113.66ZM120.447 27V10.08H124.191V23.856H131.823V27H120.447ZM140.68 27.264C138.2 27.264 136.352 26.648 135.136 25.416C133.92 24.184 133.312 22.352 133.312 19.92V10.08H137.056V19.944C137.056 21.304 137.344 22.336 137.92 23.04C138.512 23.744 139.432 24.096 140.68 24.096C141.896 24.096 142.8 23.744 143.392 23.04C144 22.336 144.304 21.304 144.304 19.944V10.08H148V19.92C148 22.352 147.384 24.184 146.152 25.416C144.936 26.648 143.112 27.264 140.68 27.264ZM148.99 27L156.07 17.592V19.248L149.182 10.08H153.574L158.182 16.536H156.982L161.614 10.08H166.006L159.094 19.248V17.592L166.222 27H161.806L156.982 20.304H158.206L153.358 27H148.99Z" fill="#F8FAFC"/>
</svg>
