<svg width="24" height="24" viewBox="0 0 24 24" fill="none" xmlns="http://www.w3.org/2000/svg">
<g clip-path="url(#clip0_230_1839)">
<path d="M11.9998 23.6998C18.4615 23.6998 23.6998 18.4615 23.6998 11.9998C23.6998 5.53807 18.4615 0.299805 11.9998 0.299805C5.53807 0.299805 0.299805 5.53807 0.299805 11.9998C0.299805 18.4615 5.53807 23.6998 11.9998 23.6998Z" fill="white"/>
<path d="M12.1184 19.29C12.0088 19.29 11.8992 19.2626 11.7896 19.2078C10.9402 18.7146 4.52808 14.7139 4.28146 14.5768C4.08965 14.4946 3.98004 14.3028 3.95264 14.111V8.46619C3.95264 8.24697 4.06224 8.05515 4.22666 7.94555L4.28146 7.91814C4.91171 7.53452 6.96686 6.27402 7.29569 6.08221C7.37789 6.0274 7.4601 6 7.54231 6C7.62451 6 7.70672 6.0274 7.78892 6.0548C7.78892 6.0548 10.6935 7.94555 11.132 8.10996C11.4334 8.24697 11.7896 8.32917 12.1184 8.32917C12.5021 8.32917 12.8857 8.24697 13.2419 8.05515C13.6804 7.83594 16.448 6.08221 16.4754 6.08221C16.5576 6.0274 16.6124 6.0274 16.6946 6.0274C16.7768 6.0274 16.859 6.0548 16.9412 6.10961C17.3248 6.32882 19.8732 7.89074 19.9828 7.94555C20.1747 8.05515 20.2843 8.24697 20.2569 8.46619V14.0836C20.2295 14.2754 20.1199 14.4672 19.928 14.5494C19.7088 14.6865 13.3515 18.6872 12.4747 19.1804C12.3651 19.2352 12.2555 19.2626 12.1184 19.29Z" fill="url(#paint0_linear_230_1839)"/>
<path d="M12.0908 19.2902H12.1182C12.2278 19.2902 12.3374 19.2628 12.447 19.208C13.2965 18.7148 19.7086 14.7141 19.9278 14.5771C20.1196 14.4949 20.2292 14.303 20.2566 14.1112V8.4664C20.2566 8.3842 20.2292 8.27459 20.2018 8.19238L12.0908 12.6589V19.2902Z" fill="url(#paint1_linear_230_1839)"/>
<path d="M12.0636 19.2079H12.0362C11.9266 19.2079 11.817 19.1805 11.7074 19.1257C10.8579 18.605 4.52802 14.6592 4.30881 14.5221C4.11699 14.4399 4.00738 14.2755 3.97998 14.0563V8.52109C3.97998 8.43888 4.00738 8.32928 4.03478 8.24707L12.0636 12.6588V19.2079Z" fill="url(#paint2_linear_230_1839)"/>
<path d="M7.7998 9.89941H8.52102V13.3459H9.77253V14.0352H7.7998V9.89941ZM11.4695 10.9229C11.8513 10.9229 12.2119 11.09 12.4665 11.3824V10.9856H13.1453V14.0352H12.4665V13.6383C12.2331 13.9307 11.8725 14.1187 11.4695 14.0978C10.621 14.0978 9.98465 13.3877 9.98465 12.5104C9.98465 11.6331 10.621 10.9229 11.4695 10.9229ZM11.5968 11.5287C11.0453 11.5287 10.6847 11.9464 10.6847 12.5104C10.6847 13.0535 11.0453 13.4921 11.5968 13.4921C12.1483 13.4921 12.5089 13.0743 12.5089 12.5104C12.5089 11.9673 12.1483 11.5287 11.5968 11.5287ZM13.6756 13.4921L15.2877 11.5913H13.6968V10.9856H16.1786V11.5287L14.5453 13.4085H16.1998V14.0143H13.6756V13.4921Z" fill="white"/>
</g>
<defs>
<linearGradient id="paint0_linear_230_1839" x1="4.01349" y1="12.6981" x2="20.1768" y2="12.5731" gradientUnits="userSpaceOnUse">
<stop stop-color="#FFB900"/>
<stop offset="0.338" stop-color="#F38000"/>
<stop offset="0.567" stop-color="#F83C72"/>
<stop offset="0.78" stop-color="#FC1CBE"/>
<stop offset="0.93" stop-color="#FE08ED"/>
<stop offset="1" stop-color="#FF00FF"/>
</linearGradient>
<linearGradient id="paint1_linear_230_1839" x1="8.55556" y1="17.989" x2="25.0351" y2="8.86469" gradientUnits="userSpaceOnUse">
<stop stop-color="#EE0A3F"/>
<stop offset="1" stop-color="#EE0A3F" stop-opacity="0"/>
</linearGradient>
<linearGradient id="paint2_linear_230_1839" x1="10.2834" y1="15.2962" x2="2.3203" y2="8.88135" gradientUnits="userSpaceOnUse">
<stop stop-color="#ED6600"/>
<stop offset="1" stop-color="#F98200"/>
</linearGradient>
<clipPath id="clip0_230_1839">
<rect width="24" height="24" fill="white"/>
</clipPath>
</defs>
</svg>
