<svg xmlns="http://www.w3.org/2000/svg" width="60" height="60" viewBox="0 0 60 60" fill="none">
  <path d="M46.175 42.075L47.15 49.975C47.4 52.05 45.175 53.5 43.4 52.425L34.75 47.275C34.15 46.925 34 46.175 34.325 45.575C35.575 43.275 36.25 40.675 36.25 38.075C36.25 28.925 28.4 21.475 18.75 21.475C16.775 21.475 14.85 21.775 13.05 22.375C12.125 22.675 11.225 21.825 11.45 20.875C13.725 11.775 22.475 5 32.925 5C45.125 5 55 14.225 55 25.6C55 32.35 51.525 38.325 46.175 42.075Z" fill="#EF4444"/>
  <path d="M32.5 38.0746C32.5 41.0496 31.4 43.7996 29.55 45.9746C27.075 48.9746 23.15 50.8996 18.75 50.8996L12.225 54.7746C11.125 55.4496 9.725 54.5246 9.875 53.2496L10.5 48.3246C7.15 45.9996 5 42.2746 5 38.0746C5 33.6746 7.35 29.7996 10.95 27.4996C13.175 26.0496 15.85 25.2246 18.75 25.2246C26.35 25.2246 32.5 30.9746 32.5 38.0746Z" fill="#EF4444"/>
</svg>