<svg xmlns="http://www.w3.org/2000/svg" width="60" height="60" viewBox="0 0 60 60" fill="none">
  <path d="M53.1251 46.1753L49.0001 47.1503C48.0751 47.3753 47.3501 48.0753 47.1501 49.0003L46.2751 52.6753C45.8001 54.6753 43.2501 55.3003 41.9251 53.7253L34.4501 45.1253C33.8501 44.4253 34.1751 43.3253 35.0751 43.1003C39.5001 42.0253 43.4751 39.5503 46.4001 36.0253C46.8751 35.4503 47.7251 35.3753 48.2501 35.9003L53.8001 41.4503C55.7001 43.3503 55.0251 45.7253 53.1251 46.1753Z" fill="#EF4444"/>
  <path d="M6.74992 46.1753L10.8749 47.1503C11.7999 47.3753 12.5249 48.0753 12.7249 49.0003L13.5999 52.6753C14.0749 54.6753 16.6249 55.3003 17.9499 53.7253L25.4249 45.1253C26.0249 44.4253 25.6999 43.3253 24.7999 43.1003C20.3749 42.0253 16.3999 39.5503 13.4749 36.0253C12.9999 35.4503 12.1499 35.3753 11.6249 35.9003L6.07492 41.4503C4.17492 43.3503 4.84992 45.7253 6.74992 46.1753Z" fill="#EF4444"/>
  <path d="M30 5C20.325 5 12.5 12.825 12.5 22.5C12.5 26.125 13.575 29.45 15.425 32.225C18.125 36.225 22.4 39.05 27.375 39.775C28.225 39.925 29.1 40 30 40C30.9 40 31.775 39.925 32.625 39.775C37.6 39.05 41.875 36.225 44.575 32.225C46.425 29.45 47.5 26.125 47.5 22.5C47.5 12.825 39.675 5 30 5ZM37.65 21.95L35.575 24.025C35.225 24.375 35.025 25.05 35.15 25.55L35.75 28.125C36.225 30.15 35.15 30.95 33.35 29.875L30.85 28.4C30.4 28.125 29.65 28.125 29.2 28.4L26.7 29.875C24.9 30.925 23.825 30.15 24.3 28.125L24.9 25.55C25 25.075 24.825 24.375 24.475 24.025L22.35 21.95C21.125 20.725 21.525 19.5 23.225 19.225L25.9 18.775C26.35 18.7 26.875 18.3 27.075 17.9L28.55 14.95C29.35 13.35 30.65 13.35 31.45 14.95L32.925 17.9C33.125 18.3 33.65 18.7 34.125 18.775L36.8 19.225C38.475 19.5 38.875 20.725 37.65 21.95Z" fill="#EF4444"/>
</svg>