<svg xmlns="http://www.w3.org/2000/svg" width="101" height="100" viewBox="0 0 101 100" fill="none">
  <path d="M99.5 47.6172C99.5 73.9166 77.5725 95.2344 50.5 95.2344C46.4551 95.2344 42.5375 94.7607 38.7792 93.8572C37.6399 93.5837 36.4492 93.6887 35.4007 94.2113L24.677 99.5566C21.9085 100.936 18.65 98.929 18.65 95.8425V86.0138C18.65 84.6097 18.0204 83.3008 16.9816 82.3534C7.44125 73.6602 1.5 61.3163 1.5 47.6172C1.5 21.3179 23.4275 0 50.5 0C77.5725 0 99.5 21.3179 99.5 47.6172Z" fill="url(#paint0_radial_114_5234)"/>
  <path opacity="0.05" d="M77.4308 32.459C76.3822 32.459 75.3655 32.8057 74.4908 33.4626L60.5405 43.7553C60.2147 43.9994 59.8545 44.1215 59.4748 44.1215C59.1073 44.1215 58.7618 44.0068 58.4703 43.7894L48.7389 36.4881C46.7593 35.0205 44.4269 34.2465 41.9842 34.2465C38.123 34.2465 34.573 36.178 32.488 39.4135L29.5211 44.0312L19.4271 60.3798C18.4667 61.8791 18.3932 63.7301 19.2531 65.2978C20.1302 66.8948 21.7864 67.8862 23.5749 67.8862C24.6235 67.8862 25.6403 67.5394 26.5149 66.8826L40.4652 56.5899C40.7911 56.3457 41.1512 56.2236 41.531 56.2236C41.8985 56.2236 42.2439 56.3384 42.5355 56.5557L52.2669 63.857C54.2489 65.3271 56.5789 66.0987 59.0215 66.0987C62.8827 66.0987 66.4328 64.1672 68.5177 60.9316L71.4847 56.314L81.5787 39.9654C82.5391 38.4661 82.6126 36.6151 81.7526 35.0474C80.8755 33.4504 79.2193 32.459 77.4308 32.459Z" fill="#0F172A"/>
  <path opacity="0.07" d="M77.4307 33.6787C76.6491 33.6787 75.8872 33.94 75.2281 34.4357L61.2705 44.7357C60.7413 45.1337 60.1239 45.3413 59.4771 45.3413C58.8425 45.3413 58.2423 45.141 57.7376 44.765L48.0037 37.4612C46.2422 36.1548 44.1621 35.4662 41.9841 35.4662C38.5418 35.4662 35.3789 37.1877 33.5193 40.0741L30.5548 44.6917L20.4731 61.0232C19.7454 62.1587 19.6891 63.5457 20.331 64.7129C20.9827 65.8997 22.2591 66.6665 23.5772 66.6665C24.3588 66.6665 25.1207 66.4052 25.7798 65.9095L39.7374 55.6095C40.2666 55.2115 40.884 55.0039 41.5308 55.0039C42.1654 55.0039 42.7656 55.2041 43.2703 55.5802L53.0042 62.8839C54.7657 64.1904 56.8458 64.879 59.0238 64.879C62.4661 64.879 65.629 63.1574 67.4886 60.2711L70.4531 55.6534L80.5348 39.322C81.2625 38.1865 81.3188 36.7995 80.6769 35.6322C80.0252 34.4455 78.7512 33.6787 77.4307 33.6787Z" fill="#0F172A"/>
  <path d="M75.9656 35.4109L62.0006 45.7158C60.5061 46.8391 58.4726 46.8391 57.0026 45.7402L47.2663 38.4365C43.1503 35.3841 37.3193 36.4341 34.5508 40.7319L31.5863 45.3471L21.5168 61.659C20.0468 63.9544 22.8643 66.5673 25.0448 64.9312L39.0098 54.6263C40.5043 53.503 42.5378 53.503 44.0078 54.6019L53.7441 61.9057C57.8601 64.958 63.6911 63.908 66.4596 59.6103L69.4241 54.995L79.4936 38.6831C80.9636 36.3877 78.1461 33.7749 75.9656 35.4109Z" fill="#F8FAFC"/>
  <defs>
    <radialGradient id="paint0_radial_114_5234" cx="0" cy="0" r="1" gradientUnits="userSpaceOnUse" gradientTransform="translate(18.8631 95.1807) scale(116.649 116.264)">
      <stop stop-color="#1292FF"/>
      <stop offset="0.079" stop-color="#2982FF"/>
      <stop offset="0.23" stop-color="#4E69FF"/>
      <stop offset="0.351" stop-color="#6559FF"/>
      <stop offset="0.428" stop-color="#6D53FF"/>
      <stop offset="0.754" stop-color="#DF47AA"/>
      <stop offset="0.946" stop-color="#FF6257"/>
    </radialGradient>
  </defs>
</svg>