<svg xmlns="http://www.w3.org/2000/svg" width="101" height="100" viewBox="0 0 101 100" fill="none">
  <g clip-path="url(#clip0_114_5240)">
    <path d="M50.4999 2.38086C37.8705 2.38086 25.7585 7.39785 16.8282 16.3282C7.89785 25.2585 2.88086 37.3705 2.88086 49.9999C2.88086 62.6293 7.89785 74.7414 16.8282 83.6717C25.7585 92.602 37.8705 97.6189 50.4999 97.619C63.1293 97.6189 75.2414 92.602 84.1717 83.6717C93.102 74.7414 98.119 62.6293 98.119 49.9999C98.119 37.3705 93.102 25.2585 84.1717 16.3282C75.2414 7.39785 63.1293 2.38086 50.4999 2.38086Z" fill="#03A9F4"/>
    <path d="M73.119 45.2381C65.8572 45.2381 58.8927 48.1229 53.7578 53.2578C48.6229 58.3927 45.7381 65.3572 45.7381 72.619C45.7381 79.8809 48.6229 86.8454 53.7578 91.9803C58.8927 97.1152 65.8572 100 73.119 100C80.3809 100 87.3454 97.1152 92.4803 91.9803C97.6152 86.8454 100.5 79.8809 100.5 72.619C100.5 65.3572 97.6152 58.3927 92.4803 53.2578C87.3454 48.1229 80.3809 45.2381 73.119 45.2381ZM27.881 0C24.2852 -5.35804e-08 20.7247 0.708229 17.4027 2.08425C14.0807 3.46027 11.0623 5.47714 8.5197 8.01969C5.97714 10.5623 3.96027 13.5807 2.58425 16.9027C1.20823 20.2247 0.5 23.7852 0.5 27.381C0.5 30.9767 1.20823 34.5372 2.58425 37.8592C3.96027 41.1812 5.97714 44.1996 8.5197 46.7422C11.0623 49.2848 14.0807 51.3016 17.4027 52.6777C20.7247 54.0537 24.2852 54.7619 27.881 54.7619C31.4767 54.7619 35.0372 54.0537 38.3592 52.6777C41.6812 51.3016 44.6996 49.2848 47.2422 46.7422C49.7848 44.1996 51.8016 41.1812 53.1777 37.8592C54.5537 34.5372 55.2619 30.9767 55.2619 27.381C55.2619 23.7852 54.5537 20.2247 53.1777 16.9027C51.8016 13.5807 49.7848 10.5623 47.2422 8.01969C44.6996 5.47714 41.6812 3.46027 38.3592 2.08425C35.0372 0.708229 31.4767 -5.35804e-08 27.881 0Z" fill="#03A9F4"/>
    <path d="M51.9332 78.5716C36.2141 78.5716 29.0713 70.712 29.0713 64.7597C29.0713 61.662 31.2094 59.5239 34.307 59.5239C40.976 59.5239 39.3118 69.2906 51.9308 69.2906C58.357 69.2906 61.9284 65.7192 61.9284 62.1478C61.9284 60.0001 60.9713 57.6192 56.6927 56.4287L42.6403 52.8573C31.4522 50.0001 29.3141 43.8049 29.3141 37.8525C29.3141 25.7144 40.5022 21.4287 50.9761 21.4287C60.7403 21.4287 71.9284 26.6644 71.9284 33.8073C71.9284 36.9049 69.5475 38.812 66.4499 38.812C60.7403 38.812 61.688 30.712 50.257 30.712C44.5475 30.712 41.2165 33.3359 41.2165 37.1478C41.2165 40.9525 45.7356 42.143 49.7832 43.1001L60.2641 45.4811C71.6856 48.093 74.3094 54.762 74.3094 61.1882C74.0665 71.1859 66.9237 78.5716 51.9332 78.5716Z" fill="#F8FAFC"/>
  </g>
  <defs>
    <clipPath id="clip0_114_5240">
      <rect width="100" height="100" fill="white" transform="translate(0.5)"/>
    </clipPath>
  </defs>
</svg>