<svg xmlns="http://www.w3.org/2000/svg" width="101" height="100" viewBox="0 0 101 100" fill="none">
  <g clip-path="url(#clip0_114_5245)">
    <path d="M50.5 0C37.2392 0 24.5215 5.26784 15.1447 14.6447C5.76784 24.0215 0.5 36.7392 0.5 50C0.5 63.2608 5.76784 75.9785 15.1447 85.3553C24.5215 94.7322 37.2392 100 50.5 100C63.7608 100 76.4785 94.7322 85.8553 85.3553C95.2322 75.9785 100.5 63.2608 100.5 50C100.5 36.7392 95.2322 24.0215 85.8553 14.6447C76.4785 5.26784 63.7608 0 50.5 0Z" fill="#29B6F6"/>
    <path d="M75.375 27.501L66.01 75.316C66.01 75.316 65.6075 77.501 62.8975 77.501C61.4575 77.501 60.715 76.816 60.715 76.816L40.43 59.9835L30.505 54.981L17.7675 51.5935C17.7675 51.5935 15.5 50.9385 15.5 49.0635C15.5 47.501 17.8325 46.756 17.8325 46.756L71.1225 25.586C71.1225 25.586 72.75 24.9985 73.9375 25.001C74.6675 25.001 75.5 25.3135 75.5 26.251C75.5 26.876 75.375 27.501 75.375 27.501Z" fill="#F8FAFC"/>
    <path d="M48.0001 66.2625L39.4351 74.6975C39.4351 74.6975 39.0626 74.985 38.5651 74.9975C38.3926 75.0025 38.2076 74.975 38.0176 74.89L40.4276 59.9775L48.0001 66.2625Z" fill="#94A3B8"/>
    <path d="M65.2425 35.4897C64.82 34.9397 64.04 34.8397 63.49 35.2572L30.5 54.9997C30.5 54.9997 35.765 69.7297 36.5675 72.2797C37.3725 74.8322 38.0175 74.8922 38.0175 74.8922L40.4275 59.9797L65.0075 37.2397C65.5575 36.8222 65.66 36.0397 65.2425 35.4897Z" fill="#CBD5E1"/>
  </g>
  <defs>
    <clipPath id="clip0_114_5245">
      <rect width="100" height="100" fill="white" transform="translate(0.5)"/>
    </clipPath>
  </defs>
</svg>