<svg xmlns="http://www.w3.org/2000/svg" width="101" height="100" viewBox="0 0 101 100" fill="none">
  <g clip-path="url(#clip0_114_5226)">
    <path d="M26.8159 81.5786V4.80708L23.6291 2.67285C10.079 8.11236 0.5 21.3466 0.5 36.8415V63.1574C0.5 83.5049 16.9948 99.9997 37.3423 99.9997H63.6583C76.0846 99.9997 87.0347 93.8207 93.7032 84.3917V81.5786H26.8159Z" fill="#2962FF"/>
    <path d="M63.658 0H37.3421C32.4868 0 27.8657 0.963163 23.6209 2.66844C14.8498 11.1843 8.39453 25.0738 8.39453 36.8423C8.39453 54.6608 10.8577 65.0925 18.163 75.282C18.7314 76.0741 19.1025 77.0004 19.1525 77.9715C19.2656 80.1689 18.813 84.1952 14.8525 87.8189C14.4261 88.2084 14.6972 88.9216 15.2735 88.9452C17.7525 89.0531 22.7551 88.9084 27.8973 86.6373C29.3631 85.99 31.0315 86.1031 32.4473 86.8558C41.1658 91.4847 51.3764 92.1058 61.0264 92.1058C73.3317 92.1058 85.6029 89.3689 93.7029 84.4321C97.9687 78.4189 100.5 71.0899 100.5 63.1583V36.8423C100.5 16.4948 84.0055 0 63.658 0Z" fill="#F1F5F9"/>
    <path d="M84.053 57.8942C78.6135 57.8942 74.1846 53.4652 74.1846 48.0257C74.1846 42.5862 78.6135 38.1572 84.053 38.1572C89.4926 38.1572 93.9215 42.5862 93.9215 48.0257C93.9215 53.4652 89.4926 57.8942 84.053 57.8942ZM84.053 42.1046C80.7899 42.1046 78.132 44.7625 78.132 48.0257C78.132 51.2889 80.7899 53.9468 84.053 53.9468C87.3162 53.9468 89.9741 51.2889 89.9741 48.0257C89.9741 44.7625 87.3162 42.1046 84.053 42.1046Z" fill="#2962FF"/>
    <path d="M70.2374 57.8943H67.6058C66.8795 57.8943 66.29 57.3048 66.29 56.5785V34.21H70.2374V57.8943Z" fill="#2962FF"/>
    <path d="M58.395 38.8151V40.1809C56.7398 38.9283 54.7029 38.1572 52.4739 38.1572C47.0344 38.1572 42.6055 42.5862 42.6055 48.0257C42.6055 53.4652 47.0344 57.8942 52.4739 57.8942C54.7029 57.8942 56.7398 57.1231 58.395 55.8705V56.5784C58.395 57.3047 58.9845 57.8942 59.7108 57.8942H62.3424V38.8151H58.395ZM52.4739 53.9468C49.2108 53.9468 46.5529 51.2889 46.5529 48.0257C46.5529 44.7625 49.2108 42.1046 52.4739 42.1046C55.7371 42.1046 58.395 44.7625 58.395 48.0257C58.395 51.2889 55.7371 53.9468 52.4739 53.9468Z" fill="#2962FF"/>
    <path d="M43.2641 34.21H22.2113V38.1574H36.214L21.5534 55.2627H21.6218C21.1929 55.818 20.8955 56.4811 20.8955 57.2364V57.8943H40.6325C41.3588 57.8943 41.9483 57.3048 41.9483 56.5785V53.9469H27.9455L42.6062 36.8416H42.5377C42.9667 36.2863 43.2641 35.6231 43.2641 34.8679V34.21Z" fill="#2962FF"/>
  </g>
  <defs>
    <clipPath id="clip0_114_5226">
      <rect width="100" height="100" fill="white" transform="translate(0.5)"/>
    </clipPath>
  </defs>
</svg>