<svg xmlns="http://www.w3.org/2000/svg" width="16" height="16" viewBox="0 0 16 16" fill="none">
  <path d="M12 1H4C1.6 1 0 2.2 0 5V10.6C0 13.4 1.6 14.6 4 14.6H12C14.4 14.6 16 13.4 16 10.6V5C16 2.2 14.4 1 12 1ZM12.376 5.872L9.872 7.872C9.344 8.296 8.672 8.504 8 8.504C7.328 8.504 6.648 8.296 6.128 7.872L3.624 5.872C3.368 5.664 3.328 5.28 3.528 5.024C3.736 4.768 4.112 4.72 4.368 4.928L6.872 6.928C7.48 7.416 8.512 7.416 9.12 6.928L11.624 4.928C11.88 4.72 12.264 4.76 12.464 5.024C12.672 5.28 12.632 5.664 12.376 5.872Z" fill="#334155"/>
</svg>