<svg width="60" height="60" viewBox="0 0 60 60" fill="none" xmlns="http://www.w3.org/2000/svg">
<path d="M55.625 38.75C56.325 38.75 56.875 39.3 56.875 40V42.5C56.875 46.65 53.525 50 49.375 50C49.375 45.875 46 42.5 41.875 42.5C37.75 42.5 34.375 45.875 34.375 50H29.375C29.375 45.875 26 42.5 21.875 42.5C17.75 42.5 14.375 45.875 14.375 50C10.225 50 6.875 46.65 6.875 42.5V37.5C6.875 36.125 8 35 9.375 35H33.125C36.575 35 39.375 32.2 39.375 28.75V15C39.375 13.625 40.5 12.5 41.875 12.5H43.975C45.775 12.5 47.425 13.475 48.325 15.025L49.925 17.825C50.15 18.225 49.85 18.75 49.375 18.75C45.925 18.75 43.125 21.55 43.125 25V32.5C43.125 35.95 45.925 38.75 49.375 38.75H55.625Z" fill="#EF4444"/>
<path d="M21.875 55C24.6364 55 26.875 52.7614 26.875 50C26.875 47.2386 24.6364 45 21.875 45C19.1136 45 16.875 47.2386 16.875 50C16.875 52.7614 19.1136 55 21.875 55Z" fill="#EF4444"/>
<path d="M41.875 55C44.6364 55 46.875 52.7614 46.875 50C46.875 47.2386 44.6364 45 41.875 45C39.1136 45 36.875 47.2386 36.875 50C36.875 52.7614 39.1136 55 41.875 55Z" fill="#EF4444"/>
<path d="M56.875 31.325V35H49.375C48 35 46.875 33.875 46.875 32.5V25C46.875 23.625 48 22.5 49.375 22.5H52.6L56.225 28.85C56.65 29.6 56.875 30.45 56.875 31.325Z" fill="#EF4444"/>
<path d="M34.575 5H16.1C11.625 5 7.875 8.2 7.05 12.45H17.975C18.925 12.45 19.675 13.225 19.675 14.175C19.675 15.125 18.925 15.875 17.975 15.875H6.875V19.325H13.375C14.325 19.325 15.1 20.1 15.1 21.05C15.1 22 14.325 22.75 13.375 22.75H6.875V26.2H8.8C9.75 26.2 10.525 26.975 10.525 27.925C10.525 28.875 9.75 29.625 8.8 29.625H6.875V30.2C6.875 31.575 8 32.7 9.375 32.7H32.25C34.8 32.7 36.875 30.625 36.875 28.075V7.3C36.875 6.025 35.85 5 34.575 5Z" fill="#EF4444"/>
<path d="M7.05 12.4502H6.675H4.225C3.275 12.4502 2.5 13.2252 2.5 14.1752C2.5 15.1252 3.275 15.8752 4.225 15.8752H6.5H6.875V14.2252C6.875 13.6252 6.95 13.0252 7.05 12.4502Z" fill="#EF4444"/>
<path d="M6.5 19.3252H4.225C3.275 19.3252 2.5 20.1002 2.5 21.0502C2.5 22.0002 3.275 22.7502 4.225 22.7502H6.5H6.875V19.3252H6.5Z" fill="#EF4444"/>
<path d="M6.5 26.2002H4.225C3.275 26.2002 2.5 26.9752 2.5 27.9252C2.5 28.8752 3.275 29.6252 4.225 29.6252H6.5H6.875V26.2002H6.5Z" fill="#EF4444"/>
</svg>
