<svg width="24" height="24" viewBox="0 0 24 24" fill="none" xmlns="http://www.w3.org/2000/svg">
<g clip-path="url(#clip0_230_1831)">
<path d="M11.9998 23.6998C18.4615 23.6998 23.6998 18.4615 23.6998 11.9998C23.6998 5.53807 18.4615 0.299805 11.9998 0.299805C5.53807 0.299805 0.299805 5.53807 0.299805 11.9998C0.299805 18.4615 5.53807 23.6998 11.9998 23.6998Z" fill="white"/>
<path d="M11.0003 10.6139V10.1276C10.8112 10.1006 10.6221 10.1006 10.433 10.1006C8.16379 10.1006 6.2998 11.8295 6.2998 13.9636C6.2998 15.2603 7.00218 16.4219 8.05574 17.1243C7.35336 16.4219 6.94815 15.4764 6.94815 14.5039C6.97516 12.3698 8.75811 10.6679 11.0003 10.6139Z" fill="#34D399"/>
<path d="M11.1087 16.0981C12.0812 16.0981 12.8646 15.3417 12.8916 14.3962V5.94068H14.4585C14.4314 5.75158 14.4044 5.58949 14.4044 5.40039H12.2703V13.8559C12.2433 14.8014 11.4599 15.5578 10.4873 15.5578C10.1902 15.5578 9.92005 15.4767 9.6499 15.3417C10.0011 15.8279 10.5414 16.0981 11.1087 16.0981ZM17.349 8.8042V8.34495C16.7817 8.34495 16.2144 8.18287 15.7281 7.8587C16.1604 8.34495 16.7277 8.66913 17.349 8.8042Z" fill="#34D399"/>
<path d="M15.6741 7.96685C15.2149 7.42656 14.9447 6.7512 14.9447 6.04883H14.3774C14.5395 6.85926 14.9988 7.53462 15.6741 7.96685ZM10.4333 12.1C9.46082 12.1 8.65039 12.8835 8.65039 13.856C8.65039 14.5043 9.02859 15.1256 9.59589 15.4228C9.37978 15.1256 9.27172 14.7745 9.27172 14.3963C9.27172 13.4237 10.0822 12.6403 11.0547 12.6403C11.2438 12.6403 11.4059 12.6673 11.5679 12.7214V10.5872C11.4059 10.5602 11.2168 10.5602 11.0547 10.5602C11.0277 10.5602 11.0006 10.5602 10.9736 10.5602V12.2081C10.7845 12.1271 10.6224 12.1 10.4333 12.1Z" fill="#EF4444"/>
<path d="M17.0783 9.07422V10.7221C16.0247 10.7221 14.9982 10.3979 14.1337 9.77659V14.0449C14.1337 16.179 12.3778 17.9079 10.2437 17.9079C9.40621 17.9079 8.64981 17.6378 8.00146 17.2055C8.73085 17.989 9.78441 18.4482 10.865 18.4482C13.0261 18.4482 14.7551 16.7193 14.7551 14.5851V10.2899C15.6195 10.9112 16.6461 11.2354 17.6996 11.2354V9.12825C17.4835 9.12825 17.2674 9.12825 17.0783 9.07422Z" fill="#EF4444"/>
<path d="M14.3232 13.91V9.61472C15.2146 10.2361 16.2682 10.5602 17.3488 10.5602V8.91235C16.7274 8.77728 16.1331 8.4531 15.7009 7.96685C14.9985 7.53462 14.5393 6.83224 14.3772 6.04883H12.8104V14.4773C12.7834 15.4228 11.9729 16.1792 11.0004 16.1792C10.4061 16.1792 9.8658 15.9091 9.51462 15.4498C8.9203 15.1527 8.5421 14.5313 8.5421 13.883C8.5421 12.9105 9.35253 12.1271 10.3791 12.1C10.5682 12.1 10.7573 12.1271 10.9194 12.1811V10.5332C8.75821 10.5872 7.0293 12.2891 7.0293 14.3963C7.0293 15.4228 7.43451 16.3413 8.10987 17.0437C8.78523 17.5029 9.59566 17.746 10.4061 17.746C12.5402 17.7731 14.3232 16.0441 14.3232 13.91Z" fill="#0F172A"/>
</g>
<defs>
<clipPath id="clip0_230_1831">
<rect width="24" height="24" fill="white"/>
</clipPath>
</defs>
</svg>
