<svg width="122" height="19" viewBox="0 0 122 19" fill="none" xmlns="http://www.w3.org/2000/svg">
<path d="M6.848 18.264C5.488 18.264 4.216 18.096 3.032 17.76C1.848 17.424 0.84 16.96 0.00800008 16.368L1.112 13.44C1.656 13.808 2.232 14.12 2.84 14.376C3.448 14.632 4.088 14.832 4.76 14.976C5.432 15.104 6.136 15.168 6.872 15.168C8.024 15.168 8.84 14.992 9.32 14.64C9.816 14.288 10.064 13.84 10.064 13.296C10.064 12.8 9.896 12.424 9.56 12.168C9.24 11.896 8.648 11.664 7.784 11.472L4.952 10.896C3.4 10.576 2.24 10.032 1.472 9.264C0.704 8.496 0.32 7.472 0.32 6.192C0.32 5.104 0.608 4.16 1.184 3.36C1.76 2.56 2.568 1.936 3.608 1.488C4.664 1.04 5.896 0.816 7.304 0.816C8.504 0.816 9.624 0.983999 10.664 1.32C11.704 1.656 12.56 2.136 13.232 2.76L12.128 5.496C11.472 4.968 10.736 4.576 9.92 4.32C9.12 4.048 8.224 3.912 7.232 3.912C6.192 3.912 5.392 4.096 4.832 4.464C4.288 4.832 4.016 5.336 4.016 5.976C4.016 6.456 4.184 6.848 4.52 7.152C4.856 7.44 5.448 7.672 6.296 7.848L9.08 8.4C10.664 8.72 11.84 9.256 12.608 10.008C13.376 10.76 13.76 11.76 13.76 13.008C13.76 14.064 13.472 14.984 12.896 15.768C12.336 16.552 11.536 17.168 10.496 17.616C9.472 18.048 8.256 18.264 6.848 18.264ZM16.5249 18V1.08H20.2689V7.872H28.0209V1.08H31.7889V18H28.0209V10.968H20.2689V18H16.5249ZM34.724 9.528C34.724 7.768 35.052 6.24 35.708 4.944C36.38 3.632 37.34 2.616 38.588 1.896C39.836 1.176 41.316 0.816 43.028 0.816C44.74 0.816 46.22 1.176 47.468 1.896C48.716 2.616 49.676 3.632 50.348 4.944C51.036 6.24 51.38 7.76 51.38 9.504C51.38 11.28 51.036 12.824 50.348 14.136C49.676 15.432 48.716 16.448 47.468 17.184C46.22 17.904 44.74 18.264 43.028 18.264C41.316 18.264 39.836 17.904 38.588 17.184C37.356 16.448 36.404 15.424 35.732 14.112C35.06 12.8 34.724 11.272 34.724 9.528ZM38.636 9.528C38.636 11.272 38.996 12.64 39.716 13.632C40.452 14.608 41.556 15.096 43.028 15.096C44.468 15.096 45.564 14.608 46.316 13.632C47.068 12.64 47.444 11.272 47.444 9.528C47.444 7.768 47.068 6.408 46.316 5.448C45.58 4.472 44.484 3.984 43.028 3.984C41.556 3.984 40.452 4.472 39.716 5.448C38.996 6.408 38.636 7.768 38.636 9.528ZM54.3061 18V1.08H62.2021C64.1061 1.08 65.5461 1.544 66.5221 2.472C67.5141 3.384 68.0101 4.64 68.0101 6.24C68.0101 7.824 67.5141 9.088 66.5221 10.032C65.5461 10.96 64.1061 11.424 62.2021 11.424H58.0501V18H54.3061ZM58.0501 8.52H61.7221C62.6181 8.52 63.2821 8.32 63.7141 7.92C64.1621 7.52 64.3861 6.96 64.3861 6.24C64.3861 5.52 64.1621 4.968 63.7141 4.584C63.2821 4.184 62.6181 3.984 61.7221 3.984H58.0501V8.52ZM68.6604 18V14.16H72.5484V18H68.6604ZM75.4468 18V1.08H79.1908V14.856H86.8228V18H75.4468ZM95.6797 18.264C93.1997 18.264 91.3517 17.648 90.1357 16.416C88.9197 15.184 88.3117 13.352 88.3117 10.92V1.08H92.0557V10.944C92.0557 12.304 92.3437 13.336 92.9197 14.04C93.5117 14.744 94.4317 15.096 95.6797 15.096C96.8957 15.096 97.7997 14.744 98.3917 14.04C98.9997 13.336 99.3037 12.304 99.3037 10.944V1.08H103V10.92C103 13.352 102.384 15.184 101.152 16.416C99.9357 17.648 98.1117 18.264 95.6797 18.264ZM103.99 18L111.07 8.592V10.248L104.182 1.08H108.574L113.182 7.536H111.982L116.614 1.08H121.006L114.094 10.248V8.592L121.222 18H116.806L111.982 11.304H113.206L108.358 18H103.99Z" fill="#0F172A"/>
</svg>
